<svg width="176" height="25" viewBox="0 0 176 25" fill="none" xmlns="http://www.w3.org/2000/svg">
<path d="M16.32 3.06V6.45H10.74V24H6.54V6.45H0.96V3.06H16.32ZM21.5145 5.4C20.7745 5.4 20.1545 5.17 19.6545 4.71C19.1745 4.23 18.9345 3.64 18.9345 2.94C18.9345 2.24 19.1745 1.66 19.6545 1.2C20.1545 0.719999 20.7745 0.479999 21.5145 0.479999C22.2545 0.479999 22.8645 0.719999 23.3445 1.2C23.8445 1.66 24.0945 2.24 24.0945 2.94C24.0945 3.64 23.8445 4.23 23.3445 4.71C22.8645 5.17 22.2545 5.4 21.5145 5.4ZM23.5845 7.38V24H19.3845V7.38H23.5845ZM48.3741 7.14C50.4141 7.14 52.0541 7.77 53.2941 9.03C54.5541 10.27 55.1841 12.01 55.1841 14.25V24H50.9841V14.82C50.9841 13.52 50.6541 12.53 49.9941 11.85C49.3341 11.15 48.4341 10.8 47.2941 10.8C46.1541 10.8 45.2441 11.15 44.5641 11.85C43.9041 12.53 43.5741 13.52 43.5741 14.82V24H39.3741V14.82C39.3741 13.52 39.0441 12.53 38.3841 11.85C37.7241 11.15 36.8241 10.8 35.6841 10.8C34.5241 10.8 33.6041 11.15 32.9241 11.85C32.2641 12.53 31.9341 13.52 31.9341 14.82V24H27.7341V7.38H31.9341V9.39C32.4741 8.69 33.1641 8.14 34.0041 7.74C34.8641 7.34 35.8041 7.14 36.8241 7.14C38.1241 7.14 39.2841 7.42 40.3041 7.98C41.3241 8.52 42.1141 9.3 42.6741 10.32C43.2141 9.36 43.9941 8.59 45.0141 8.01C46.0541 7.43 47.1741 7.14 48.3741 7.14ZM63.3696 9.81C63.9096 9.01 64.6496 8.36 65.5896 7.86C66.5496 7.36 67.6396 7.11 68.8596 7.11C70.2796 7.11 71.5596 7.46 72.6996 8.16C73.8596 8.86 74.7696 9.86 75.4296 11.16C76.1096 12.44 76.4496 13.93 76.4496 15.63C76.4496 17.33 76.1096 18.84 75.4296 20.16C74.7696 21.46 73.8596 22.47 72.6996 23.19C71.5596 23.91 70.2796 24.27 68.8596 24.27C67.6196 24.27 66.5296 24.03 65.5896 23.55C64.6696 23.05 63.9296 22.41 63.3696 21.63V24H59.1696V1.8H63.3696V9.81ZM72.1596 15.63C72.1596 14.63 71.9496 13.77 71.5296 13.05C71.1296 12.31 70.5896 11.75 69.9096 11.37C69.2496 10.99 68.5296 10.8 67.7496 10.8C66.9896 10.8 66.2696 11 65.5896 11.4C64.9296 11.78 64.3896 12.34 63.9696 13.08C63.5696 13.82 63.3696 14.69 63.3696 15.69C63.3696 16.69 63.5696 17.56 63.9696 18.3C64.3896 19.04 64.9296 19.61 65.5896 20.01C66.2696 20.39 66.9896 20.58 67.7496 20.58C68.5296 20.58 69.2496 20.38 69.9096 19.98C70.5896 19.58 71.1296 19.01 71.5296 18.27C71.9496 17.53 72.1596 16.65 72.1596 15.63ZM94.9516 15.33C94.9516 15.93 94.9116 16.47 94.8316 16.95H82.6816C82.7816 18.15 83.2016 19.09 83.9416 19.77C84.6816 20.45 85.5916 20.79 86.6716 20.79C88.2316 20.79 89.3416 20.12 90.0016 18.78H94.5316C94.0516 20.38 93.1316 21.7 91.7716 22.74C90.4116 23.76 88.7416 24.27 86.7616 24.27C85.1616 24.27 83.7216 23.92 82.4416 23.22C81.1816 22.5 80.1916 21.49 79.4716 20.19C78.7716 18.89 78.4216 17.39 78.4216 15.69C78.4216 13.97 78.7716 12.46 79.4716 11.16C80.1716 9.86 81.1516 8.86 82.4116 8.16C83.6716 7.46 85.1216 7.11 86.7616 7.11C88.3416 7.11 89.7516 7.45 90.9916 8.13C92.2516 8.81 93.2216 9.78 93.9016 11.04C94.6016 12.28 94.9516 13.71 94.9516 15.33ZM90.6016 14.13C90.5816 13.05 90.1916 12.19 89.4316 11.55C88.6716 10.89 87.7416 10.56 86.6416 10.56C85.6016 10.56 84.7216 10.88 84.0016 11.52C83.3016 12.14 82.8716 13.01 82.7116 14.13H90.6016ZM102.217 9.96C102.757 9.08 103.457 8.39 104.317 7.89C105.197 7.39 106.197 7.14 107.317 7.14V11.55H106.207C104.887 11.55 103.887 11.86 103.207 12.48C102.547 13.1 102.217 14.18 102.217 15.72V24H98.0173V7.38H102.217V9.96ZM138.136 3.06L132.286 24H127.336L123.406 9.09L119.296 24L114.376 24.03L108.736 3.06H113.236L116.926 19.32L121.186 3.06H125.866L129.886 19.23L133.606 3.06H138.136ZM148.259 24.27C146.659 24.27 145.219 23.92 143.939 23.22C142.659 22.5 141.649 21.49 140.909 20.19C140.189 18.89 139.829 17.39 139.829 15.69C139.829 13.99 140.199 12.49 140.939 11.19C141.699 9.89 142.729 8.89 144.029 8.19C145.329 7.47 146.779 7.11 148.379 7.11C149.979 7.11 151.429 7.47 152.729 8.19C154.029 8.89 155.049 9.89 155.789 11.19C156.549 12.49 156.929 13.99 156.929 15.69C156.929 17.39 156.539 18.89 155.759 20.19C154.999 21.49 153.959 22.5 152.639 23.22C151.339 23.92 149.879 24.27 148.259 24.27ZM148.259 20.61C149.019 20.61 149.729 20.43 150.389 20.07C151.069 19.69 151.609 19.13 152.009 18.39C152.409 17.65 152.609 16.75 152.609 15.69C152.609 14.11 152.189 12.9 151.349 12.06C150.529 11.2 149.519 10.77 148.319 10.77C147.119 10.77 146.109 11.2 145.289 12.06C144.489 12.9 144.089 14.11 144.089 15.69C144.089 17.27 144.479 18.49 145.259 19.35C146.059 20.19 147.059 20.61 148.259 20.61ZM164.209 1.8V24H160.009V1.8H164.209ZM175.979 10.83H173.069V24H168.809V10.83H166.919V7.38H168.809V6.54C168.809 4.5 169.389 3 170.549 2.04C171.709 1.08 173.459 0.629999 175.799 0.69V4.23C174.779 4.21 174.069 4.38 173.669 4.74C173.269 5.1 173.069 5.75 173.069 6.69V7.38H175.979V10.83Z" fill="#1D293F"/>
</svg>
